# xmcd
#
# Track frame offsets:
#	150
#	12642
#	22381
#	31294
#	40635
#	51881
#	64404
#	75727
#	85592
#	97436
#	109307
#	119789
#
# Disc length: 1741 seconds
#
# Revision: 5439494
# Processed by: cddbd v1.5.2PL0 Copyright (c) Steve Scherf et al.
# Submitted via: EZCDAudioConverter 9.1.1.1
#
DISCID=ac06cb0c
DTITLE=Johnny Cash
DYEAR=2004
DGENRE=Country
TTITLE0=I Walk The Line
TTITLE1=It's Just About Time
TTITLE2=Katy Too
TTITLE3=Luther's Boogie
TTITLE4=Mean Eyed Cat
TTITLE5=Next In Line
TTITLE6=Oh Lonesome Me
TTITLE7=Rock Island Line
TTITLE8=So Doggone Lonesome
TTITLE9=Thanks A Lot
TTITLE10=There You Go
TTITLE11=Train Of Love
EXTD=
EXTT0=
EXTT1=
EXTT2=
EXTT3=
EXTT4=
EXTT5=
EXTT6=
EXTT7=
EXTT8=
EXTT9=
EXTT10=
EXTT11=
PLAYORDER=
